<svg width="18" height="16" viewBox="0 0 18 16" fill="none" xmlns="http://www.w3.org/2000/svg">
<path d="M2.33341 1.33337C1.40841 1.33337 0.666748 2.07504 0.666748 3.00004V13C0.666748 13.4421 0.842343 13.866 1.1549 14.1786C1.46746 14.4911 1.89139 14.6667 2.33341 14.6667H15.6667C16.1088 14.6667 16.5327 14.4911 16.8453 14.1786C17.1578 13.866 17.3334 13.4421 17.3334 13V3.00004C17.3334 2.55801 17.1578 2.13409 16.8453 1.82153C16.5327 1.50897 16.1088 1.33337 15.6667 1.33337H2.33341ZM2.33341 3.00004H8.16675V4.77504C6.70008 5.15837 5.66675 6.48337 5.66675 8.00004C5.66872 8.73824 5.91508 9.455 6.36735 10.0384C6.81962 10.6219 7.45235 11.0391 8.16675 11.225V13H2.33341V11.3334H4.83341V4.66671H2.33341V3.00004ZM9.83341 3.00004H15.6667V4.66671H13.1667V11.3334H15.6667V13H9.83341V11.225C11.3001 10.8417 12.3334 9.51671 12.3334 8.00004C12.3314 7.26184 12.0851 6.54508 11.6328 5.96165C11.1805 5.37822 10.5478 4.96097 9.83341 4.77504V3.00004ZM2.33341 6.33337H3.16675V9.66671H2.33341V6.33337ZM14.8334 6.33337H15.6667V9.66671H14.8334V6.33337ZM9.83341 6.55837C10.3501 6.85837 10.6667 7.40837 10.6667 8.00004C10.6667 8.59171 10.3501 9.14171 9.83341 9.44171V6.55837ZM8.16675 6.55837V9.44171C7.65008 9.14171 7.33341 8.59171 7.33341 8.00004C7.33341 7.40837 7.65008 6.85837 8.16675 6.55837Z" fill="white" stroke="#292A2E"/>
</svg>
